<svg xmlns="http://www.w3.org/2000/svg" width="1000" height="681.34" viewBox="0 0 1000 681.34"><path d="M104.7,807.28l84.22,3.8v29.59H0V159.33H188.92v29.59l-84.22,3.8q-28.83,1.51-37.17,7.2t-8.35,23.14V776.94q0,17.44,8.35,23.14T104.7,807.28Z" transform="translate(0 -159.33)" fill="#9d4dff"/><path d="M345.22,673q0,8.35,14.42,11.38t56.14,3v33.38H234.45V687.41q37.16,0,48.55-4.18t16.7-18.59l174.5-448.4h51.6l174.5,448.4q5.31,14.43,16.7,18.59t48.55,4.18v33.38H557.66V687.41q41.73,0,56.15-3T628.22,673a23.09,23.09,0,0,0-.75-5.31,95.45,95.45,0,0,0-3-9.11L578.91,535.66H394.54L349,658.57a94.71,94.71,0,0,0-3,9.11A22.11,22.11,0,0,0,345.22,673Zm143.4-382.4h-3L407.44,500.76H566Z" transform="translate(0 -159.33)" fill="#9d4dff"/><path d="M1000,840.67H811.08V811.08l84.22-3.8q28.82-1.51,37.17-7.2t8.35-23.14V223.06q0-17.44-8.35-23.14t-37.17-7.2l-84.22-3.8V159.33H1000Z" transform="translate(0 -159.33)" fill="#9d4dff"/></svg>